<svg id="Layer_1" data-name="Layer 1" xmlns="http://www.w3.org/2000/svg" viewBox="65 65 140 140"><defs><style>.cls-1{fill:#1a6afd;}.cls-2{fill:#0b3c8f;}.cls-3{fill:#699ae9;}.cls-4{fill:#f9fbfe;}.cls-5{fill:#1b6afd;}</style></defs><path class="cls-1" d="M83.64,71.61c.9-.08,1.8-.25,2.7-.25h92.85c5.86,0,8.46,2.65,8.47,8.57,0,5.16.06,10.31.09,15.47v77.26H107.33c-7.82,0-15.64-.05-23.46-.07q0-49.25,0-98.5C83.87,73.26,83.72,72.43,83.64,71.61Zm59.93,55.71c6.88-3.23,9.85-8.25,9.86-15.77,0-8.93-4.12-14-13-16.24a41,41,0,0,0-8.88-.76c-5.63-.11-11.26,0-17,0v56.14h10.22v-21.4c2.57,0,4.89.12,7.2,0,1.53-.1,2.2.57,2.83,1.82,2.46,4.9,5,9.76,7.52,14.61a10.31,10.31,0,0,0,10.08,6c3.85-.12,4-.21,4-4.14v-3.19l-.65.55c-1.6-1.14-3.75-1.94-4.69-3.48C148.32,137,146.11,132.2,143.57,127.32Z"/><path class="cls-2" d="M83.87,172.58c7.82,0,15.64.07,23.46.07h80.42V95.39h8.38V196.65H83.81c-6.2,0-8.82-2.6-8.83-8.76,0-3.08,0-6.15,0-9.23Z"/><path class="cls-3" d="M83.87,172.58l-8.94,6.08-10.33,6.4-2.69,1.63V184q0-48,0-96a3.87,3.87,0,0,1,2.05-3.79c6.62-4.13,13.16-8.39,19.72-12.61.08.82.23,1.65.23,2.47Q83.89,123.32,83.87,172.58Z"/><path class="cls-4" d="M143.57,127.32c2.54,4.88,4.75,9.64,7.46,14.09.94,1.54,3.09,2.34,4.69,3.48l.65-.55v3.19c0,3.93-.12,4-4,4.14a10.31,10.31,0,0,1-10.08-6c-2.53-4.85-5.06-9.71-7.52-14.61-.63-1.25-1.3-1.92-2.83-1.82-2.31.16-4.63,0-7.2,0v21.4H114.55V94.52c5.75,0,11.38-.08,17,0a41,41,0,0,1,8.88.76c8.87,2.19,13,7.31,13,16.24C153.42,119.07,150.45,124.09,143.57,127.32ZM124.9,102.13v19.34c2.53,0,4.92-.06,7.31,0,6.62.21,11.53-1.95,10.85-10.79-.35-4.53-1.84-7.13-6.36-7.91C132.91,102.14,129,102.33,124.9,102.13Z"/><path class="cls-5" d="M124.9,102.13c4.07.2,8,0,11.8.66,4.52.78,6,3.38,6.36,7.91.68,8.84-4.23,11-10.85,10.79-2.39-.08-4.78,0-7.31,0Z"/></svg>