<svg id="Layer_1" data-name="Layer 1" xmlns="http://www.w3.org/2000/svg" viewBox="60 60 138 138"><defs><style>.cls-1{fill:#acdf6f;}.cls-2{fill:#51781f;}.cls-3{fill:#82b04a;}.cls-4{fill:#74a03e;}.cls-5{fill:#aadd6e;}</style></defs><rect class="cls-1" x="64.18" y="64.18" width="129.65" height="129.65" rx="26.64"/><path class="cls-2" d="M124.38,146.47l-.53.44a3.07,3.07,0,0,1-1,.37,2.79,2.79,0,0,0-.83.36l-.09,0c-.16.13-.29.29-.45.42h0c-.06.09-.15.15-.19.25l0,.18c0,.09-.13.16-.16.26l-.09.28c-.77,1.63-1.38,3.33-2.2,4.94l0,.18c-.18.23-.22.55-.4.78l-.05.19c-.31.6-.59,1.2-.91,1.79l0,.18c-.1.15-.19.31-.28.47l0,.18c0,.09-.14.15-.16.26l-.06.17c-.09.16-.19.32-.27.48l0,.18c-.1.15-.19.31-.28.47l0,.18c-.54.93-.93,1.94-1.49,2.85l-.06.19a.78.78,0,0,1-.16.24l0,.1a6.66,6.66,0,0,1-.38.69l-.06.17c-.26.44-.43.92-.72,1.34l-.06.18a1.07,1.07,0,0,1-.16.25l-.25.52c-.24.35-.37.77-.62,1.11l0,.19a3.64,3.64,0,0,1-.37.59l0,.18a15.88,15.88,0,0,1-.82,1.45l-.51.93a2.45,2.45,0,0,1-.26.37l-.37.62c0,.09-.13.16-.18.25l-.37.62c-.14.18-.26.38-.4.57l0,.08a1.12,1.12,0,0,1-.19.24l-.34.53c-.06.09-.14.15-.19.24a.2.2,0,0,1,0,.08,1.43,1.43,0,0,1-.19.24l-.13.2a2.23,2.23,0,0,1-.19.24l-.13.2c-.06.08-.14.15-.2.24l-.13.19a2.31,2.31,0,0,1-.2.24l-.13.2a2.09,2.09,0,0,1-.2.22l-.56.65a5.39,5.39,0,0,1-.76.75l-.31.24a2.43,2.43,0,0,1-.34.3l-.56.66c0,.1-.14.16-.16.27l0,1.81c-.09,1.08-.89,1.53-1.74,1l-.11-.1a1.61,1.61,0,0,1-.39-.57l-.06-.29a1.08,1.08,0,0,1-.14-.26l0-.31a1.1,1.1,0,0,1,0-.67l0-.3a.94.94,0,0,1,.21-.45,2.17,2.17,0,0,1,1-.9,3.42,3.42,0,0,0,1.25-1.14,1.37,1.37,0,0,1,.19-.23l1-1.5a.61.61,0,0,1,.18-.24l.56-.86.19-.24.48-.73a.84.84,0,0,1,.18-.24l0-.09a1.5,1.5,0,0,1,.18-.24l.48-.74a1,1,0,0,1,.18-.24l0-.09a2.15,2.15,0,0,1,.18-.24.36.36,0,0,1,0-.09c0-.08.12-.16.18-.24l.25-.41a2.15,2.15,0,0,1,.18-.24l.25-.41c.06-.09.13-.16.18-.25l0-.08c0-.09.14-.16.19-.25l.15-.29c0-.09.12-.16.18-.25l.15-.29a2.74,2.74,0,0,1,.29-.46l.14-.31c.15-.21.23-.47.4-.67l.47-1c.14-.22.24-.47.4-.68l.06-.19a.91.91,0,0,1,.16-.24l0-.19a2,2,0,0,1,.28-.46l.06-.19a.67.67,0,0,1,.16-.25l.17-.4a.7.7,0,0,1,.15-.25l.06-.19a.78.78,0,0,1,.16-.24l.17-.41a.67.67,0,0,1,.16-.25l0-.19a1.92,1.92,0,0,1,.27-.46l.06-.19a.82.82,0,0,1,.16-.25l0-.19a2.48,2.48,0,0,1,.27-.47l0-.18c.12-.24.24-.47.38-.7l0-.18c0-.09.13-.15.16-.25l.62-1.37a1.07,1.07,0,0,1,.16-.25l0-.19c.12-.24.24-.47.37-.69l0-.19c0-.09.14-.15.16-.26l.09-.27a.79.79,0,0,1,.15-.25l.05-.19a7.55,7.55,0,0,1,.37-.69l0-.19c0-.09.13-.15.16-.25l.3-.72a1,1,0,0,1,.16-.25l0-.19c0-.09.11-.16.17-.25l0-.18c0-.1.13-.16.17-.26l.3-.72a.75.75,0,0,1,.15-.24l0-.19a2,2,0,0,1,.27-.47l.06-.19a1.32,1.32,0,0,1,.16-.25l.05-.18c.3-.54.53-1.12.83-1.66l0-.19a1.35,1.35,0,0,1,.15-.26l.06-.29c.12-.27.22-.55.35-.81l.16-.51a6.27,6.27,0,0,1,.64-1.54,2.6,2.6,0,0,1,1.3-1.08,1,1,0,0,1,.25-.16l.19-.06a.56.56,0,0,1,.25-.14l.28-.09c.1,0,.16-.13.25-.16l.18-.06c.1,0,.16-.13.26-.16l1.71-1c.09-.05.15-.13.25-.18l.62-.36c.09,0,.15-.14.25-.18a.11.11,0,0,1,.08,0l.24-.19c.5-.42,1-.81,1.49-1.26,1.36-1.33,2.7-2.68,4-4,.14-.14.29-.27.44-.4a6.88,6.88,0,0,1,.55-.53l1.41-1.32a2,2,0,0,1,.33-.31l.86-.78a3.39,3.39,0,0,1,.34-.31l.86-.78a2.09,2.09,0,0,1,.22-.2l.43-.34.23-.2,1.62-1.22a1.37,1.37,0,0,1,.23-.19l1.32-1.08.52-.46a5.6,5.6,0,0,1,.55-.54l.78-.76c0-.08.08-.17-.06-.2h-.26a4.3,4.3,0,0,1-.79.18l-.41.13c-.1,0-.17.12-.26.16l-.63.37a3.58,3.58,0,0,1-.56.4l-.53.35a1.43,1.43,0,0,1-.24.19l-.86.57a.8.8,0,0,1-.23.18l-.74.48a1.43,1.43,0,0,1-.24.19l-.53.35a.8.8,0,0,1-.23.18l-.41.26a2.23,2.23,0,0,1-.24.19l-.41.25-.24.18-.74.48a3.38,3.38,0,0,1-.36.27l-.95.59a2.15,2.15,0,0,1-.24.18l-.42.25a7,7,0,0,1-.78.52l-.08,0c-.19.13-.38.27-.58.38l-.3.17c-.14.12-.31.19-.45.3l-.09,0c-.26.17-.52.35-.79.51l-1.06.57a6.71,6.71,0,0,1-.68.4l-.17.07c-.15,0-.24.19-.38.24l-.18.05c-.09.06-.15.15-.26.16l-.27.09a4.17,4.17,0,0,1-1.44.53l-.2,0a5.76,5.76,0,0,1-2.11,0l-.3,0a3.89,3.89,0,0,1-1-.32l-.18-.05c-.1-.05-.16-.13-.25-.18l-.34-.44a1.5,1.5,0,0,1,0-1.45l0-.18c0-.09.14-.16.19-.24l.66-.65a1.5,1.5,0,0,1,.24-.2l.41-.25c.09,0,.15-.14.24-.18l.09,0a1.67,1.67,0,0,0,.32-.33l.06-.17c.43-.89.62-1.87,1.08-2.75a14.1,14.1,0,0,1,.72-1.32.24.24,0,0,1,0-.08c.17-.27.33-.53.52-.79l0-.08a1.12,1.12,0,0,1,.19-.24l.13-.2a2.23,2.23,0,0,1,.19-.24l.46-.63c.08-.13.22-.22.29-.36l.14-.19c.06-.08.14-.15.2-.23l.14-.2a.87.87,0,0,1,.2-.23l.33-.43c.06-.08.14-.15.21-.23l.13-.19a3.63,3.63,0,0,1,.41-.47l.23-.3c.09-.13.22-.22.3-.35l.79-1c.06-.09.14-.15.2-.23l.35-.42c.08-.13.21-.22.3-.35l.24-.3a2.31,2.31,0,0,1,.2-.24l.35-.41a1.5,1.5,0,0,1,.2-.24l.34-.42c.06-.09.13-.15.19-.24l.17-.29c-.07-.45-.45-.26-.63-.22a11.35,11.35,0,0,1-1.16.1l-.52,0a9.17,9.17,0,0,1-1.65.19h-.21c-.32.18-.69,0-1,.15l-.73,0c-.8,0-1.59.17-2.4.15h-.85a17.49,17.49,0,0,1-2.4.17c-1.24,0-2.47.17-3.71.15l-1.63.06a5,5,0,0,1-1.09,0l-1.31-.06a16.59,16.59,0,0,1-1.72-.13.79.79,0,0,0-.58.09.11.11,0,0,0-.08,0,.88.88,0,0,0-.22.21l-.31.34a3.94,3.94,0,0,1-2.56,0l-.29,0a2.12,2.12,0,0,1-.55-.14l-.2,0a1.15,1.15,0,0,0-.89,0l-2.06,1.86a3.28,3.28,0,0,1-.34.31l-.63.46c-.09.06-.15.14-.24.19l-.86.57a1.08,1.08,0,0,1-.24.18l-1.07.69c-.13.13-.3.19-.44.31l-.86.56a1.92,1.92,0,0,1-.23.19l-.2.14c-.09.06-.15.14-.24.19l-.2.13a2,2,0,0,1-.35.3l-.08,0c-.13.09-.21.23-.36.29l-.2.14a1.1,1.1,0,0,1-.23.2l-.2.13a1.5,1.5,0,0,1-.23.2l-.31.23a2,2,0,0,1-.35.3l-.2.14a1.5,1.5,0,0,1-.23.2l-.42.34a1.55,1.55,0,0,1-.23.21l-.75.66a4.47,4.47,0,0,1-.45.42l-1.72,1.45a2.75,2.75,0,0,1-1.42.43H87.27a4.41,4.41,0,0,1-1.09-.15l-.19,0c-.12-.06-.26-.08-.37-.15h-.84c-.4.11-.8.22-1.21.31h-.22c-.2,0-.21-.24-.31-.36s0-.47,0-.71c0-.87.49-1.19,1.34-.93.31.09.62.2.93.26A8.47,8.47,0,0,0,90,128.4a4.11,4.11,0,0,0,.69-.42c.33-.19.65-.39,1-.55a21.55,21.55,0,0,0,3.13-2c.19-.14.39-.25.59-.37a2.35,2.35,0,0,1,.25-.19l.94-.58c.09,0,.16-.14.25-.18l.08,0a2.35,2.35,0,0,1,.25-.19l.29-.15c.14-.07.22-.22.37-.27l1.06-.69a.88.88,0,0,1,.24-.19l.63-.47c.16-.13.28-.29.45-.41l.65-.66a4.47,4.47,0,0,1,.43-.44l1.42-1.52a3.31,3.31,0,0,1,.32-.33l1.08-1.09a1.5,1.5,0,0,1,.24-.2l.08,0a4.22,4.22,0,0,0,1.77-1.06l.51-.27a1,1,0,0,1,.56-.19l.31,0a1.79,1.79,0,0,1,1.12,0l.31,0a1.16,1.16,0,0,1,.68.18l.19,0a4.44,4.44,0,0,1,.89.3l.2,0c.26,0,.5.15.76.14h1.53c.51,0,1-.16,1.52-.14l.52,0c.22-.14.49,0,.7-.15h.2c.47,0,.93-.16,1.41-.15l.41,0a5,5,0,0,1,1.22-.18l.42,0c.17-.12.37-.06.56-.1l.54-.07c.44,0,.87-.17,1.31-.15l.52,0c.49-.11,1-.15,1.47-.23.21-.1.28-.23.11-.43-.14,0-.22-.17-.36-.19l-.19,0a8.75,8.75,0,0,1-1.23-.49l-.19,0a3.24,3.24,0,0,1-.47-.28l-.51-.37c-.15,0-.28-.23-.47-.09l-.4.38a.5.5,0,0,1-.69,0l-.31-.24c-.34-.33-.23-.67,0-1s.33-.35.55-.46a1,1,0,0,1,.24-.07h.44a2.87,2.87,0,0,1,1.43.42l.28.08c.11,0,.17.11.26.15l.4.16c.1,0,.16.12.26.15l.27.08a2.87,2.87,0,0,1,.49.26l.5.17c.1,0,.16.12.26.16l.18,0a.21.21,0,0,0,.25,0h0a.82.82,0,0,0,.16-.25l.19-.6c.12-.24.24-.47.37-.7l.06-.18c0-.1.12-.16.17-.25l.68-1.06c.06-.09.14-.16.2-.24l0-.08a.88.88,0,0,1,.19-.24l.23-.31a2.41,2.41,0,0,1,.21-.24l.54-.54a1.06,1.06,0,0,1,.24-.19l.3-.15a2.62,2.62,0,0,1,1-.32h.2c.25-.17.55,0,.81-.16l1.82,0c.36.08.75-.06,1.1.1l.53,0a2.85,2.85,0,0,1,1,.18l.31,0c.19,0,.36.1.54.13l.19,0c.11,0,.16.12.27.15l.19,0c.18,0,.3.13.46.18l.2,0a5.87,5.87,0,0,1,.89.31l.3,0a1.12,1.12,0,0,0,1.21-.19l.42-.34c.19-.17.36-.37.56-.53l1.73-1.64a1.55,1.55,0,0,1,.23-.21l1.07-.78c.13-.09.21-.23.36-.29l.84-.47c.16-.15.39-.17.57-.3l.18,0c.17-.13.4-.16.58-.28l.4-.16c.15-.09.31-.19.47-.27l.51-.26c.23-.21,0-.38-.06-.56l-.49-.83c0-.09-.13-.16-.18-.25l-.25-.52a2.43,2.43,0,0,1-.28-.47l-.27-.72A.39.39,0,0,1,146,100l0-.2c-.17-.43-.44-.84-.2-1.34l.55-.45c.26-.14.47,0,.68.13l1.59,1.36c.19.1.33-.06.49-.11l0,0a.5.5,0,0,0,.06-.24l0-.2c-.12-.17-.06-.38-.1-.56s0-.3-.17-.36-.17-.12-.26-.17l-.22-.23a.91.91,0,0,1,0-1.2h0a1.09,1.09,0,0,1,1.1-.14l.35.33a1.56,1.56,0,0,1,.19.9v.76a4.77,4.77,0,0,0-.15.54V99a.32.32,0,0,0,0,.37l.65.45a.88.88,0,0,1,.24.19l.42.31c.21-.22.1-.49.11-.74V99a.6.6,0,0,1,.1-.23l.32-.25a3.29,3.29,0,0,1,1.12-.18h1.51a4,4,0,0,1,.36-.17l.1-.25a2.36,2.36,0,0,1,0-.65v-.85a9.08,9.08,0,0,0,.07-1.81,2.17,2.17,0,0,1,.08-.84V89.25a7.24,7.24,0,0,1-.08-1.54,2.48,2.48,0,0,0-.07-.9v-.63c-.06-.43,0-.87,0-1.31v-.2c-.16-.28,0-.59-.11-.88l0-.42a2.07,2.07,0,0,1-.18-.78l0-.31c-.06-.12-.08-.25-.14-.37l0-.19c0-.19-.16-.35-.14-.55l0-.19c-.16-.29-.21-.63-.37-.92l0-.19a5.07,5.07,0,0,1-.44-1l0-.2a1.14,1.14,0,0,1-.19-.56l0-.2c-.06-.12-.09-.25-.15-.37s.1-.41.28-.55.31,0,.43.15l.25.41c.16.21.25.46.4.68l.05.19a4,4,0,0,1,.52,1.32l0,.2c.1.14.05.33.15.48l0,.3a6.29,6.29,0,0,1,.13.87l0,.41a4.22,4.22,0,0,1,.18,1.11l0,.42c.11.17.06.37.1.56l.07.44a6.51,6.51,0,0,1,.14,1.08l0,.42c.17.32,0,.7.15,1v.3c.07.5,0,1,0,1.52v.42a6.14,6.14,0,0,1,.08,1.6,5.82,5.82,0,0,0,0,.59c0,.9.06,1.79.07,2.69,0,.48,0,1-.07,1.45a13.36,13.36,0,0,1-.31,2v.61c0,.1.12.16.16.26l.13.19a.36.36,0,0,0,.46,0l.09,0a.83.83,0,0,1,.23-.19l1-1c.08-.13.21-.22.3-.35l1.32-1.29a1.15,1.15,0,0,1,.23-.21l.2-.13a2.11,2.11,0,0,1,.23-.19l.41-.25a1.44,1.44,0,0,1,.25-.18l1.17-.69a1,1,0,0,1,.25-.17l.3-.15a4.4,4.4,0,0,1,.45-.3l.73-.37c.1,0,.16-.13.25-.18l.52-.25c.21-.16.46-.25.68-.4l.18-.05c.1,0,.16-.12.26-.17l.4-.16a4.37,4.37,0,0,1,.48-.25l.71-.29c.1,0,.16-.12.26-.17l.18,0c.1,0,.16-.13.26-.17l.18,0c.28-.2.61-.32.91-.5l.39-.16c.16-.09.31-.19.48-.27l.17-.06c.1,0,.16-.13.26-.17l.52-.25c.08-.05.14-.15.25-.16l.18-.06a.48.48,0,0,1,.56,0l.11.11a2.35,2.35,0,0,1,.19.25c.06.25-.1.35-.29.45-.95.52-1.88,1.07-2.84,1.57-1.32.68-2.65,1.34-4,2a17.39,17.39,0,0,0-3.41,2.29c-.75.62-1.52,1.21-2.27,1.84S158,99,157.35,99.57a.3.3,0,0,0,0,.44l.35.52a6.66,6.66,0,0,1,1.21,3.93l0,1.07a1.6,1.6,0,0,1-.26.58.2.2,0,0,1,0,.08,2.06,2.06,0,0,1-.54.52.2.2,0,0,1-.08,0,2.51,2.51,0,0,1-1.21.45h-.19c-.17.13-.41,0-.58.15s-.39,0-.45.26a14.4,14.4,0,0,1,.14,1.85l0,.19a.56.56,0,0,0,.2.23l.09,0a11.16,11.16,0,0,0,2.1.82l.2,0c.26,0,.5.13.75.15h.21a14.76,14.76,0,0,1,1.46.35l.19,0a2.92,2.92,0,0,1,.65.15l.2,0a11.76,11.76,0,0,1,2,.73.63.63,0,0,0,.74-.1l.21-.13a1.06,1.06,0,0,1,.23-.19l.08,0a1.38,1.38,0,0,1,.25-.17l.17-.07a3.35,3.35,0,0,1,2-.4,1.83,1.83,0,0,0,1.35-.41l.08,0a1.89,1.89,0,0,1,1.53-.62l.2,0a2,2,0,0,1,.47.27l.24.31c.17.35.46.69.19,1.12l-.22.21c-.38.22-.71.57-1.21.34l-.41-.28c-.14,0-.23-.19-.37-.25H169c-.14.06-.23.2-.38.24l-.18.07a2.48,2.48,0,0,1-.36.28l-.2.14-.32.33-.14.2a1.12,1.12,0,0,1-.19.24l0,.09a5.11,5.11,0,0,1-.28.46l-.06.19a.81.81,0,0,1-.17.24l-.41.35c-.15.07-.27.22-.46.19h-.55a1,1,0,0,1-.45-.21l-.3-.25a5,5,0,0,0-1.76-.73c-.22-.08-.46-.11-.67-.21l-.19,0c-.3,0-.57-.14-.87-.15l-.31,0c-.73-.17-1.47-.29-2.19-.52l-.2,0c-.51-.18-1.06-.21-1.58-.35h-1.35a4.56,4.56,0,0,0-2,.6l-.34.33a2.3,2.3,0,0,0-.32.67l0,.31a.73.73,0,0,0,0,.58l0,.2c0,.3.37.55.16.89l-.15.29a2.83,2.83,0,0,1-.37.4.74.74,0,0,0-.18.93,9.35,9.35,0,0,1,.52,1.86l0,.31a14.27,14.27,0,0,1,.15,1.85v2.58a6.82,6.82,0,0,1,.17,1.43,7.88,7.88,0,0,1,.15,1.54l.06.55c0,.72.25,1.46-.06,2.18L153,130a2.11,2.11,0,0,1-.23.19h0c-.17.23,0,.39.11.57l.13.2a1.37,1.37,0,0,1,.19.23l.13.2a1.43,1.43,0,0,1,.19.24l0,.08c.08.13.22.22.3.35l.24.31a3.44,3.44,0,0,1,.3.35l.88.77a1.37,1.37,0,0,1,.23.19l.42.35a4.47,4.47,0,0,1,.45.42l1.08,1c.28.22.51.5.77.74l.65.66a1.92,1.92,0,0,1,.3.34l.58.74a2.23,2.23,0,0,1,.19.24l.13.2a1.64,1.64,0,0,1,.29.35l0,.09a1.45,1.45,0,0,1,.19.23l0,.08a4.47,4.47,0,0,1,.29.35l.14.2c.07.08.14.15.2.23l.46.53c.06.08.14.15.2.24l.36.62c0,.1.12.16.18.25l0,.08a2.46,2.46,0,0,0,.64.56.16.16,0,0,1,.09,0,3.68,3.68,0,0,1,.58.39l.08,0a1.92,1.92,0,0,1,.23.19l.65.65a1,1,0,0,1,.14,1.13l-.07.17a1.48,1.48,0,0,1-.73.57l-.18,0a.34.34,0,0,1-.28,0l-.19,0c-.14,0-.23-.14-.33-.22l-.43-.44c-.1-.12-.22-.21-.31-.34l-.23-.32a.83.83,0,0,1-.19-.23.36.36,0,0,1,0-.09c-.15-.16-.16-.39-.3-.56l0-.09c-.15-.2-.36-.35-.52-.56l-.22-.23a2.45,2.45,0,0,1-.34-.31l-.44-.42c-.09-.12-.21-.22-.29-.35l0-.09a1.37,1.37,0,0,1-.18-.24l-.15-.3a2.15,2.15,0,0,1-.18-.24L159,140c-.06-.09-.14-.15-.19-.24l-.35-.42c-.13-.16-.29-.28-.41-.45l-.67-.75a4.47,4.47,0,0,1-.42-.45l-.78-.86c-.25-.26-.52-.49-.75-.77l-.22-.22c-.24-.19-.44-.43-.67-.64l-.42-.34-.23-.2-.42-.34a1.55,1.55,0,0,1-.23-.21l-1.63-1.52a5,5,0,0,1-1.1-3v-2.28a18.27,18.27,0,0,1,.15-2v-.2c.13-.22,0-.49.15-.7l0-.3c0-.37.14-.72.14-1.09l0-.53a3.18,3.18,0,0,0,0-1.34l0-.31a1.54,1.54,0,0,0-.21-.45l-.13-.11c-.21-.13-.47-.16-.69-.28l-.19,0a1.27,1.27,0,0,0-1.4.44l0,.09a34.86,34.86,0,0,1-1.47,3.52l-.09.27c-.21.28-.26.64-.48.91l-.06.19a1.25,1.25,0,0,1-.16.24l0,.19a3.64,3.64,0,0,1-.37.59l-.06.18c-.22.41-.46.82-.72,1.22l-.15.3a2.07,2.07,0,0,1-.17.24.36.36,0,0,1,0,.09,2.15,2.15,0,0,1-.18.24l-.24.42a4.46,4.46,0,0,1-.41.56.2.2,0,0,1,0,.08,5.7,5.7,0,0,1-.52.67l-.24.31a6,6,0,0,1-.4.46l-2.29,2.28a3.47,3.47,0,0,1-.45.41l-.32.24a2.09,2.09,0,0,1-.22.2l-.2.14c-.12.09-.22.21-.35.29l-.08,0a3.26,3.26,0,0,1-.36.29l-.4.27c-.14.07-.22.21-.36.28l-.08,0c-.09.06-.15.14-.24.19l-.09,0c-.21.18-.45.33-.68.49l-.41.26a2.15,2.15,0,0,1-.24.18l-.09,0a2.15,2.15,0,0,1-.24.18.2.2,0,0,1-.08,0l-.24.18-.09,0a4.39,4.39,0,0,1-.56.4l-.54.35c-.28.22-.59.4-.88.62l-.42.25a1.37,1.37,0,0,1-.23.19l-.09,0a1.37,1.37,0,0,1-.24.18l-.09,0c-.08.06-.15.13-.24.19l-.08,0c-.09.06-.15.14-.24.19l-.09,0c-.08.05-.15.14-.24.19l-.73.47c-.22.17-.45.33-.69.49l-.41.26c-.08.06-.15.13-.24.19l-.08,0-.24.19-.41.25c-.13.08-.22.22-.36.28l-.08,0a2.23,2.23,0,0,1-.24.19l-.08,0c-.14.07-.22.21-.35.29l-.54.45c-.18.18-.37.36-.54.55l-.14.2a2.45,2.45,0,0,1-.29.35.2.2,0,0,1,0,.08,2.27,2.27,0,0,1-.18.25l-.14.3A5.48,5.48,0,0,1,124.38,146.47Z"/><path class="cls-3" d="M116.76,118.85a1.94,1.94,0,0,1,.39-.12l3.62-.12c.52,0,1-.08,1.56-.1a4.87,4.87,0,0,1,.54,0c-.06.19-.21.17-.35.18l-3.25.11-2,.11A2.46,2.46,0,0,1,116.76,118.85Z"/><path class="cls-4" d="M118.74,154c.1-.29.19-.57.31-.85l1.59-3.66a2.55,2.55,0,0,1,.3-.43,2.88,2.88,0,0,1-.09.4c-.58,1.34-1.16,2.68-1.75,4A3,3,0,0,1,118.74,154Z"/><path class="cls-4" d="M158.89,104.46a2,2,0,0,1-.21-1.07,5.38,5.38,0,0,0-.79-2.37,3.61,3.61,0,0,1-.21-.49,2.56,2.56,0,0,1,.39.42,5.42,5.42,0,0,1,.78,2.21c0,.33.09.67.12,1A1.11,1.11,0,0,1,158.89,104.46Z"/><path class="cls-3" d="M124.59,127.63a2.37,2.37,0,0,1-.15.4,18.75,18.75,0,0,0-1.37,3.23,2.32,2.32,0,0,1-.28.44c.07-.24.12-.48.2-.71a15,15,0,0,1,1.26-3A3.06,3.06,0,0,1,124.59,127.63Z"/><path class="cls-4" d="M152.73,119.39a.76.76,0,0,1-.16-.25c-.15-.5-.27-1-.43-1.5-.23-.67-.07-1.07.62-1.44a2,2,0,0,1-.28.44.79.79,0,0,0-.18.94c.15.42.29.85.41,1.28A2.33,2.33,0,0,1,152.73,119.39Z"/><path class="cls-4" d="M168.79,110.69c0,.26-.26.34-.47.39a4.63,4.63,0,0,1-.9.12,3.62,3.62,0,0,0-1.78.31.3.3,0,0,1-.16,0c.31-.38.78-.39,1.21-.49a.82.82,0,0,1,.27,0A3.49,3.49,0,0,0,168.79,110.69Z"/><path class="cls-4" d="M146.83,124l.51-1.34c.26-.66.51-1.31.77-2,0-.09.12-.15.19-.22-.11.36-.19.72-.33,1.07-.26.68-.55,1.36-.84,2A2.94,2.94,0,0,1,146.83,124Z"/><path class="cls-4" d="M150.48,129.49a4.88,4.88,0,0,1,.2.75,4.45,4.45,0,0,0,.84,2.1.59.59,0,0,1,.06.2c-.1-.07-.24-.11-.29-.21a11.71,11.71,0,0,1-.59-1.24,4.31,4.31,0,0,1-.27-.93A3,3,0,0,1,150.48,129.49Z"/><path class="cls-4" d="M153.23,127.1c-.25-.21-.13-.52-.16-.77a9,9,0,0,1-.16-2.2,1.08,1.08,0,0,1,.17.36c.09.64.16,1.28.21,1.93A3.18,3.18,0,0,1,153.23,127.1Z"/><path class="cls-4" d="M114.59,162.36a5,5,0,0,1,.21-.54c.31-.64.63-1.28,1-1.91a2.44,2.44,0,0,1,.32-.4,2.63,2.63,0,0,1-.08.3c-.37.76-.75,1.51-1.13,2.26A1.9,1.9,0,0,1,114.59,162.36Z"/><path class="cls-4" d="M164.54,112.1c-.27.32-.37.35-.66.25l-2-.75s-.06-.08-.09-.13a3.94,3.94,0,0,1,1.68.49A1.31,1.31,0,0,0,164.54,112.1Z"/><path class="cls-3" d="M155,93.78c0,.8,0,1.6,0,2.41,0,.08-.1.16-.16.24,0-.8,0-1.61,0-2.41C154.86,93.94,155,93.86,155,93.78Z"/><path class="cls-4" d="M153.23,129.83c0-.62,0-1.25,0-1.88a1.09,1.09,0,0,1,.07-.3,5.54,5.54,0,0,1,.18,1.92A1.18,1.18,0,0,1,153.23,129.83Z"/><path class="cls-3" d="M123.72,118.52s0-.08.08-.08l2.18-.14s.09,0,.14.07-.05.07-.08.08a10,10,0,0,1-2.18.14S123.77,118.54,123.72,118.52Z"/><path class="cls-4" d="M107.26,119.41c.39,0,.78.07,1.17.07s.93-.06,1.39-.09a.48.48,0,0,1-.54.27c-.61,0-1.22,0-1.82-.1C107.39,119.56,107.32,119.46,107.26,119.41Z"/><path class="cls-4" d="M102,181.72a1.3,1.3,0,0,0,1.45-.22l.29-.76a1.06,1.06,0,0,1-.93,1.3C102.46,182.06,102.11,182.13,102,181.72Z"/><path class="cls-4" d="M162.11,113.41a7.18,7.18,0,0,1,2.22.65c.09,0,.14.19.21.29l-2.24-.77A.75.75,0,0,1,162.11,113.41Z"/><path class="cls-3" d="M154.88,86.81c.06.08.16.16.16.24,0,.73,0,1.46,0,2.2-.06-.08-.16-.16-.17-.25C154.86,88.27,154.87,87.54,154.88,86.81Z"/><path class="cls-3" d="M122.61,136.39h2.11s0,.08,0,.09a3.58,3.58,0,0,1-2,0S122.63,136.42,122.61,136.39Z"/><path class="cls-4" d="M158.55,112.7c.06,0,.13-.07.19-.06.59.13,1.17.27,1.75.42a1.32,1.32,0,0,1,.25.16,1.93,1.93,0,0,1-.48,0c-.45-.09-.91-.19-1.36-.31A2.25,2.25,0,0,1,158.55,112.7Z"/><path class="cls-3" d="M110.43,118.81c.08-.07.15-.18.23-.18.67,0,1.33.09,2,.14,0,0,0,0,.07.08-.34,0-.67.07-1,.06S110.86,118.84,110.43,118.81Z"/><path class="cls-3" d="M156.06,91.51c0-.07-.11-.15-.11-.22,0-.66,0-1.31,0-2,.06.08.17.15.17.23,0,.62,0,1.25,0,1.88C156.12,91.45,156.08,91.48,156.06,91.51Z"/><path class="cls-3" d="M130.25,118l0,0a5.78,5.78,0,0,1,1.85-.16c.11.18,0,.26-.1.32-.25-.25-.53-.14-.8-.09A1.6,1.6,0,0,1,130.25,118Z"/><path class="cls-4" d="M150.63,125.25a1.15,1.15,0,0,1,.07.35c0,.5-.08,1-.13,1.49,0,0-.06.08-.09.12a3.48,3.48,0,0,1-.07-.78A2.81,2.81,0,0,1,150.63,125.25Z"/><path class="cls-4" d="M152.9,121.55a4.32,4.32,0,0,1-.15-1.85A2.68,2.68,0,0,1,152.9,121.55Z"/><path class="cls-4" d="M155.72,109.47a4.31,4.31,0,0,1-.14-1.85A2.8,2.8,0,0,1,155.72,109.47Z"/><path class="cls-4" d="M158.13,110.75a5.42,5.42,0,0,1-2-.68s0-.09-.07-.14l1.86.64A1,1,0,0,1,158.13,110.75Z"/><path class="cls-4" d="M153.42,112.93c.08-.09.15-.21.25-.25a3,3,0,0,1,1.75-.35s-.1.14-.15.14A6.28,6.28,0,0,0,153.42,112.93Z"/><path class="cls-3" d="M106.22,116.34a1.43,1.43,0,0,1-.85.77c-.3.12-.61.2-.92.29.09-.07.16-.18.26-.22a2.55,2.55,0,0,0,1.22-.73C106,116.38,106.12,116.37,106.22,116.34Z"/><path class="cls-3" d="M155.75,97.63a12,12,0,0,1,.15-1.22c.06-.25-.08-.55.16-.76a1.47,1.47,0,0,1,.07.46c0,.44-.13.88-.22,1.32C155.9,97.51,155.81,97.56,155.75,97.63Z"/><path class="cls-4" d="M122,147.64c.16-.38.56-.34.85-.47a4.86,4.86,0,0,1,1-.26c-.09.09-.16.21-.26.25C123.05,147.33,122.51,147.48,122,147.64Z"/><path class="cls-4" d="M117.33,156.94a4.68,4.68,0,0,1,.91-1.79A4.61,4.61,0,0,1,117.33,156.94Z"/><path class="cls-3" d="M128.08,118.19s0,0,0,0a4.65,4.65,0,0,1,1.62-.15c-.16.31-.49.16-.72.22A3.64,3.64,0,0,1,128.08,118.19Z"/><path class="cls-4" d="M124.38,146.47c.08-.16.16-.31.23-.47s.2-.56.33-.82a1.59,1.59,0,0,1,.28-.36,3.85,3.85,0,0,1-.61,1.53C124.57,146.41,124.46,146.43,124.38,146.47Z"/><path class="cls-4" d="M148.33,120.36a.44.44,0,0,1,.33-.43l.59-.24.48.23s-.09.08-.13.08A1.62,1.62,0,0,0,148.33,120.36Z"/><path class="cls-3" d="M114.8,116.42a2.28,2.28,0,0,1-1.52.14A2.28,2.28,0,0,1,114.8,116.42Z"/><path class="cls-4" d="M170.4,110c-.59,0-1,.43-1.53.62a1.62,1.62,0,0,1,1.41-.72S170.36,110,170.4,110Z"/><path class="cls-4" d="M119.26,148.31a3.89,3.89,0,0,1-.83,1.66c.21-.5.42-1,.64-1.5C119.1,148.4,119.19,148.36,119.26,148.31Z"/><path class="cls-4" d="M156.77,112.33a2.38,2.38,0,0,1,1.58.35l-1.48-.23S156.81,112.37,156.77,112.33Z"/><path class="cls-3" d="M156,88.9c0-.08-.11-.15-.11-.23,0-.43,0-.86.06-1.29,0,0,.08,0,.08.06A3.27,3.27,0,0,1,156,88.9Z"/><path class="cls-4" d="M110.8,169.56a3.74,3.74,0,0,1,.82-1.45A2.81,2.81,0,0,1,110.8,169.56Z"/><path class="cls-4" d="M120.67,144.71l-.64,1.54c0-.05-.08-.1-.07-.13q.23-.62.48-1.2C120.48,144.83,120.59,144.78,120.67,144.71Z"/><path class="cls-4" d="M160.75,111.28a3.21,3.21,0,0,1-1.46-.35C159.79,111,160.33,110.89,160.75,111.28Z"/><path class="cls-3" d="M117.63,116.09a2.73,2.73,0,0,1-1.41.15A2.46,2.46,0,0,1,117.63,116.09Z"/><path class="cls-3" d="M90,130.7s0-.06.07-.07l1.35-.36c-.21.42-.67.34-1,.5C90.29,130.81,90.12,130.73,90,130.7Z"/><path class="cls-3" d="M124.08,115.29s-.07.11-.1.11l-1.37.12s.06-.12.1-.12C123.17,115.38,123.61,115.14,124.08,115.29Z"/><path class="cls-3" d="M120.53,133.93a3.23,3.23,0,0,0,0,1.45A1.06,1.06,0,0,1,120.53,133.93Z"/><path class="cls-3" d="M124.92,136.37s.07-.09.11-.11l1.33-.42c0,.07-.09.19-.15.21-.38.14-.77.27-1.15.39C125,136.45,125,136.4,124.92,136.37Z"/><path class="cls-4" d="M113.18,165.09a2.93,2.93,0,0,1,.72-1.34A2.75,2.75,0,0,1,113.18,165.09Z"/><path class="cls-3" d="M154.83,84.87a1.9,1.9,0,0,1,0,1.31A1.94,1.94,0,0,1,154.83,84.87Z"/><path class="cls-3" d="M122.09,115.54a2.51,2.51,0,0,1-1.31.15A1.63,1.63,0,0,1,122.09,115.54Z"/><path class="cls-3" d="M122,112.37l-1.43-.42c.08,0,.17-.09.24-.08C121.23,112,121.7,112,122,112.37Z"/><path class="cls-4" d="M151,121.09c.05,0,.14.1.14.14,0,.36,0,.71,0,1.06,0,0-.1.1-.15.14Z"/><path class="cls-4" d="M164.89,144.65l-.14-1.13C165.22,143.89,165.26,144.25,164.89,144.65Z"/><path class="cls-4" d="M144.84,127.76a2.54,2.54,0,0,1,.72-1.22A2.13,2.13,0,0,1,144.84,127.76Z"/><path class="cls-3" d="M145.79,98.46l.2,1.34a1.33,1.33,0,0,1-.37-1.17C145.63,98.57,145.73,98.52,145.79,98.46Z"/><path class="cls-4" d="M156.8,107.2l1.21-.45A1.21,1.21,0,0,1,156.8,107.2Z"/><path class="cls-3" d="M119.26,115.88a2.22,2.22,0,0,1-1.22.18A1.35,1.35,0,0,1,119.26,115.88Z"/><path class="cls-3" d="M139.73,109.15c-.38.48-.63.52-1.21.19l.08-.06A1.7,1.7,0,0,0,139.73,109.15Z"/><path class="cls-3" d="M148.43,96.41a1.61,1.61,0,0,0,0,1.2A.7.7,0,0,1,148.43,96.41Z"/><path class="cls-3" d="M154.85,79.76l-.52-1.32A1.6,1.6,0,0,1,154.85,79.76Z"/><path class="cls-4" d="M151,123a1.21,1.21,0,0,1-.14,1.09A1.18,1.18,0,0,1,151,123Z"/><path class="cls-4" d="M170.07,112.31c.46.08.8-.26,1.21-.34-.23.41-.64.45-1,.51C170.19,112.49,170.12,112.37,170.07,112.31Z"/><path class="cls-3" d="M83.57,130.7a2,2,0,0,1,1.21-.31c0,.06-.08.14-.13.16-.29.08-.59.16-.89.22C83.7,130.79,83.63,130.73,83.57,130.7Z"/><path class="cls-3" d="M86.18,130.56a2.28,2.28,0,0,1,1.09.15A1.05,1.05,0,0,1,86.18,130.56Z"/><path class="cls-3" d="M108.72,115.86H107.6c.33-.34.71-.19,1.07-.09C108.7,115.77,108.71,115.83,108.72,115.86Z"/><path class="cls-3" d="M133.64,108.24c-.37,0-.75.15-1.1-.1.32,0,.65,0,1,0C133.56,108.09,133.6,108.19,133.64,108.24Z"/><path class="cls-3" d="M155.39,83.13a1.84,1.84,0,0,1-.18-1.11A1.22,1.22,0,0,1,155.39,83.13Z"/><path class="cls-3" d="M122.41,114.16a2.87,2.87,0,0,1,1.23.49A2,2,0,0,1,122.41,114.16Z"/><path class="cls-3" d="M155.73,85.63a1.46,1.46,0,0,1-.14-1.08A1.16,1.16,0,0,1,155.73,85.63Z"/><path class="cls-4" d="M112.09,167.15a1.93,1.93,0,0,1,.62-1.11A1.85,1.85,0,0,1,112.09,167.15Z"/><path class="cls-4" d="M171.5,111.76c.09-.4-.15-.75-.19-1.12a1,1,0,0,1,.39.86C171.7,111.64,171.65,111.74,171.5,111.76Z"/><path class="cls-3" d="M114,118.91a1.57,1.57,0,0,1,1.09,0A1.23,1.23,0,0,1,114,118.91Z"/><path class="cls-3" d="M152.89,98.36l-1.12.18A1,1,0,0,1,152.89,98.36Z"/><path class="cls-4" d="M155.4,136a1.3,1.3,0,0,1,.75.77A1.22,1.22,0,0,1,155.4,136Z"/><path class="cls-4" d="M105.1,177.46a1.4,1.4,0,0,1,.76-.75A1.12,1.12,0,0,1,105.1,177.46Z"/><path class="cls-3" d="M119.34,112.49a1.52,1.52,0,0,0,0,1C118.93,113.25,118.92,112.9,119.34,112.49Z"/><path class="cls-4" d="M158.22,136.23a1.25,1.25,0,0,1-.77-.74A1.25,1.25,0,0,1,158.22,136.23Z"/><path class="cls-3" d="M149.53,96.27l-1.1.14A.73.73,0,0,1,149.53,96.27Z"/><path class="cls-3" d="M126.85,118.35c.1,0,.19-.15.3-.16a5.77,5.77,0,0,1,.72,0c-.07.06-.15.17-.23.17C127.38,118.38,127.12,118.36,126.85,118.35Z"/><path class="cls-3" d="M155.9,87.08c-.06-.1-.16-.2-.17-.3s0-.49,0-.73c.06.1.16.19.17.29S155.91,86.83,155.9,87.08Z"/><path class="cls-3" d="M135.17,108.45a1.73,1.73,0,0,1-1-.18A.93.93,0,0,1,135.17,108.45Z"/><path class="cls-4" d="M133,138.6a1.3,1.3,0,0,1,.88-.62A1.37,1.37,0,0,1,133,138.6Z"/><path class="cls-3" d="M153.31,78.89l.44,1A1.33,1.33,0,0,1,153.31,78.89Z"/><path class="cls-4" d="M161.05,113.24a.82.82,0,0,1,.87.15C161.59,113.57,161.32,113.41,161.05,113.24Z"/><path class="cls-3" d="M129.71,108.26l-1,.32A1,1,0,0,1,129.71,108.26Z"/><path class="cls-3" d="M121.31,136.05l1,.32A1.15,1.15,0,0,1,121.31,136.05Z"/><path class="cls-4" d="M164.09,145.39l.73-.57A.72.72,0,0,1,164.09,145.39Z"/><path class="cls-4" d="M159.08,110.92a.61.61,0,0,1-.75-.15C158.63,110.57,158.85,110.75,159.08,110.92Z"/><path class="cls-4" d="M154.51,135.15a.94.94,0,0,1,.67.64A1,1,0,0,1,154.51,135.15Z"/><path class="cls-3" d="M154.71,83.79c.24.27.11.58.11.88C154.48,84.41,154.63,84.1,154.71,83.79Z"/><path class="cls-4" d="M146.26,125.15c.1-.33.13-.7.48-.91A1.49,1.49,0,0,1,146.26,125.15Z"/><path class="cls-4" d="M152.91,115.91a5.94,5.94,0,0,1-.18-.6,1,1,0,0,1,0-.29c.11.24.22.47.32.71C153.08,115.77,153,115.85,152.91,115.91Z"/><path class="cls-3" d="M168.91,90.56a1.43,1.43,0,0,1-.91.5A1.19,1.19,0,0,1,168.91,90.56Z"/><path class="cls-3" d="M150.07,97.5l-.19-.9A.66.66,0,0,1,150.07,97.5Z"/><path class="cls-4" d="M105.33,119.25a.59.59,0,0,1,.89,0Z"/><path class="cls-3" d="M125.13,126.76a1.19,1.19,0,0,1-.52.79A1,1,0,0,1,125.13,126.76Z"/><path class="cls-3" d="M155.18,81.61a1.33,1.33,0,0,1-.13-.87C155.19,81,155.37,81.28,155.18,81.61Z"/><path class="cls-4" d="M131.65,132.84a1.14,1.14,0,0,1,.78-.52A1,1,0,0,1,131.65,132.84Z"/><path class="cls-3" d="M129.36,134.26a1.15,1.15,0,0,1,.79-.51A1,1,0,0,1,129.36,134.26Z"/><path class="cls-4" d="M143.09,130.36a.91.91,0,0,1,.52-.67A.78.78,0,0,1,143.09,130.36Z"/><path class="cls-3" d="M138.22,109.32l-.89-.31A1,1,0,0,1,138.22,109.32Z"/><path class="cls-4" d="M163.12,142.22c-.31-.07-.6-.17-.64-.56Z"/><path class="cls-4" d="M129.58,140.88a.83.83,0,0,1,.69-.49A.8.8,0,0,1,129.58,140.88Z"/><path class="cls-3" d="M153.79,80.06a1.31,1.31,0,0,1,.37.92A1.37,1.37,0,0,1,153.79,80.06Z"/><path class="cls-4" d="M136.33,136.31a.85.85,0,0,1,.68-.49A.8.8,0,0,1,136.33,136.31Z"/><path class="cls-3" d="M130.72,108.09c-.22.3-.53.15-.81.16.08-.06.15-.17.23-.18A3.79,3.79,0,0,1,130.72,108.09Z"/><path class="cls-3" d="M154.51,82.59a1.09,1.09,0,0,1,.18.78A.58.58,0,0,1,154.51,82.59Z"/><path class="cls-4" d="M141.9,126.12a.84.84,0,0,1,.79-.18A.71.71,0,0,1,141.9,126.12Z"/><path class="cls-3" d="M110.79,116.39l-.89-.3A1.09,1.09,0,0,1,110.79,116.39Z"/><path class="cls-3" d="M111.75,116.56c-.29.18-.52,0-.76-.14C111.28,116.27,111.52,116.42,111.75,116.56Z"/><path class="cls-3" d="M151.35,99.57c.19.38.18.5-.11.74Z"/><path class="cls-4" d="M158.09,106.71a.85.85,0,0,1,.54-.52A.54.54,0,0,1,158.09,106.71Z"/><path class="cls-4" d="M133.31,134.62a.71.71,0,0,1-.55.53A.64.64,0,0,1,133.31,134.62Z"/><path class="cls-4" d="M126,143.64a.65.65,0,0,1,.54-.55A.72.72,0,0,1,126,143.64Z"/><path class="cls-4" d="M118.29,155c.08-.28.07-.62.4-.78A1.07,1.07,0,0,1,118.29,155Z"/><path class="cls-4" d="M161.06,142.54a.65.65,0,0,1,.52.56A.71.71,0,0,1,161.06,142.54Z"/><path class="cls-4" d="M161.59,111.45c-.26.15-.46,0-.65-.15C161.2,111.13,161.4,111.26,161.59,111.45Z"/><path class="cls-3" d="M140.71,108.28a.71.71,0,0,1-.56.53A.66.66,0,0,1,140.71,108.28Z"/><path class="cls-3" d="M119.68,113.74h.69C120.09,114.11,120,114.11,119.68,113.74Z"/><path class="cls-4" d="M119.87,146.76a1.08,1.08,0,0,1-.35.81A1,1,0,0,1,119.87,146.76Z"/><path class="cls-4" d="M142.23,126.89a.72.72,0,0,1-.55.54A.66.66,0,0,1,142.23,126.89Z"/><path class="cls-3" d="M165.09,92.4a.82.82,0,0,1-.68.4A.77.77,0,0,1,165.09,92.4Z"/><path class="cls-3" d="M154.28,78.25a.82.82,0,0,1-.4-.68A.75.75,0,0,1,154.28,78.25Z"/><path class="cls-4" d="M152.76,113.93a.55.55,0,0,1,.32-.67Z"/><path class="cls-3" d="M109.71,116.06l-.68-.18C109.37,115.75,109.43,115.76,109.71,116.06Z"/><path class="cls-4" d="M101.27,179.52l0,.67C101,179.9,101.05,179.77,101.27,179.52Z"/><path class="cls-3" d="M116,116.25c-.18.3-.45.15-.7.15C115.5,116.09,115.78,116.25,116,116.25Z"/><path class="cls-4" d="M150.79,124.35c0,.24.16.52-.15.7C150.64,124.8,150.48,124.53,150.79,124.35Z"/><path class="cls-4" d="M115.43,156.35a.81.81,0,0,1-.37.69A.77.77,0,0,1,115.43,156.35Z"/><path class="cls-4" d="M149.92,119.94a.61.61,0,0,1,.69.28A.75.75,0,0,1,149.92,119.94Z"/><path class="cls-3" d="M127.62,135.23a.9.9,0,0,1,.68-.4A.72.72,0,0,1,127.62,135.23Z"/><path class="cls-3" d="M154.87,97.28a.59.59,0,0,1,0,.65A.46.46,0,0,1,154.87,97.28Z"/><path class="cls-4" d="M111.09,165.17a.82.82,0,0,1-.4.68A.8.8,0,0,1,111.09,165.17Z"/><path class="cls-4" d="M116.3,154.5a.81.81,0,0,1-.37.69A.75.75,0,0,1,116.3,154.5Z"/><path class="cls-3" d="M125.87,112.06a.82.82,0,0,1-.37.7A.76.76,0,0,1,125.87,112.06Z"/><path class="cls-4" d="M114,159.28a.85.85,0,0,1-.38.7A.8.8,0,0,1,114,159.28Z"/><path class="cls-4" d="M114,163.58a.82.82,0,0,1,.38-.69C114.27,163.15,114.29,163.46,114,163.58Z"/><path class="cls-4" d="M110.22,166.81c-.06.27-.12.54-.4.67A.78.78,0,0,1,110.22,166.81Z"/><path class="cls-4" d="M143.65,129.61a.67.67,0,0,1,.41-.56C144,129.31,143.94,129.53,143.65,129.61Z"/><path class="cls-4" d="M131,133.25a.61.61,0,0,1,.58-.38A.62.62,0,0,1,131,133.25Z"/><path class="cls-4" d="M140,127.18a.68.68,0,0,1,.56-.4A.56.56,0,0,1,140,127.18Z"/><path class="cls-3" d="M147,98.14l-.68-.13C146.59,97.78,146.77,97.81,147,98.14Z"/><path class="cls-4" d="M145.62,126.36a.7.7,0,0,1,.37-.59A.55.55,0,0,1,145.62,126.36Z"/><path class="cls-4" d="M163.79,142.64a.68.68,0,0,1-.58-.39A.57.57,0,0,1,163.79,142.64Z"/><path class="cls-4" d="M134.38,137.63a.66.66,0,0,1,.56-.4A.57.57,0,0,1,134.38,137.63Z"/><path class="cls-4" d="M101.46,181.05l.39.57C101.54,181.55,101.47,181.32,101.46,181.05Z"/><path class="cls-4" d="M111.67,167.93a.68.68,0,0,1,.37-.59A.57.57,0,0,1,111.67,167.93Z"/><path class="cls-4" d="M108.71,172.92c0-.26.11-.49.4-.57A.66.66,0,0,1,108.71,172.92Z"/><path class="cls-3" d="M155.52,84.11c-.21-.16-.12-.37-.1-.56C155.69,83.69,155.64,83.9,155.52,84.11Z"/><path class="cls-4" d="M158.67,106.11c0-.22,0-.45.26-.58A.44.44,0,0,1,158.67,106.11Z"/><path class="cls-4" d="M139.71,133.82a.48.48,0,0,1,.45-.41C140.1,133.65,140,133.82,139.71,133.82Z"/><path class="cls-4" d="M152.73,114.82c-.23-.25-.23-.33,0-.58Z"/><path class="cls-4" d="M142.45,131.13a.48.48,0,0,1,.4-.46A.46.46,0,0,1,142.45,131.13Z"/><path class="cls-3" d="M93.13,128.82a.52.52,0,0,1,.45-.42A.44.44,0,0,1,93.13,128.82Z"/><path class="cls-3" d="M120.24,115.76c-.16.2-.37.11-.56.1C119.82,115.59,120,115.64,120.24,115.76Z"/><path class="cls-4" d="M121.43,148.09a.45.45,0,0,1,.45-.42A.51.51,0,0,1,121.43,148.09Z"/><path class="cls-4" d="M156,107.36c.13-.29.37-.15.58-.15C156.48,107.49,156.24,107.38,156,107.36Z"/><path class="cls-3" d="M149.06,98.37c.2.15.11.36.1.56C148.88,98.79,148.94,98.58,149.06,98.37Z"/><path class="cls-4" d="M106.42,119.24c.23-.12.39,0,.55.14C106.73,119.56,106.58,119.39,106.42,119.24Z"/><path class="cls-4" d="M152.87,130.81c-.35-.24-.38-.37-.11-.57Z"/><path class="cls-3" d="M100.23,121.67a.48.48,0,0,1-.45.41A.45.45,0,0,1,100.23,121.67Z"/><path class="cls-3" d="M107.29,115.88l-.56.19C106.87,115.86,107,115.7,107.29,115.88Z"/><path class="cls-3" d="M101.31,120.57a.5.5,0,0,1-.43.44A.44.44,0,0,1,101.31,120.57Z"/><path class="cls-3" d="M128.18,122.84a.52.52,0,0,1-.41.47C127.76,123,127.93,122.91,128.18,122.84Z"/><path class="cls-3" d="M171.72,89.43h-.56C171.37,89.16,171.51,89.16,171.72,89.43Z"/><path class="cls-4" d="M156.37,134.5a.5.5,0,0,1-.45-.42A.45.45,0,0,1,156.37,134.5Z"/><path class="cls-4" d="M156.93,137.64a.49.49,0,0,1,.42.45A.46.46,0,0,1,156.93,137.64Z"/><path class="cls-3" d="M153.09,78.13l.19.56C153.07,78.55,152.91,78.4,153.09,78.13Z"/><path class="cls-3" d="M136,108.61c-.22.12-.38,0-.54-.13C135.72,108.28,135.86,108.48,136,108.61Z"/><path class="cls-3" d="M154.18,81.17c.13.16.26.32.14.55C154.18,81.56,154,81.42,154.18,81.17Z"/><path class="cls-3" d="M149.92,98.8c-.16-.24,0-.39.15-.54C150.2,98.49,150.06,98.64,149.92,98.8Z"/><path class="cls-4" d="M158,138.84a.47.47,0,0,1,.41.45A.46.46,0,0,1,158,138.84Z"/><path class="cls-4" d="M165.84,114.8l.46-.19C166.2,114.81,166.1,115,165.84,114.8Z"/><path class="cls-3" d="M147.59,103c.32.27.33.34.06.56Z"/><path class="cls-3" d="M83,130.35l.31.36C83.07,130.75,83.05,130.72,83,130.35Z"/><path class="cls-4" d="M161.61,143.19c.27.1.24.35.3.56C161.63,143.66,161.67,143.4,161.61,143.19Z"/><path class="cls-3" d="M146.27,104.27c-.12.25-.35.25-.58.28C145.8,104.29,146,104.29,146.27,104.27Z"/><path class="cls-3" d="M145.51,104.59c-.11.26-.36.25-.57.3C145,104.61,145.28,104.63,145.51,104.59Z"/><path class="cls-4" d="M164.84,114.6l.45.21C165,115,164.93,114.79,164.84,114.6Z"/><path class="cls-4" d="M111.64,164.09a.49.49,0,0,1-.28.46C111.35,164.33,111.4,164.16,111.64,164.09Z"/><path class="cls-3" d="M137.13,109l-.46-.18C136.9,108.66,137,108.83,137.13,109Z"/><path class="cls-4" d="M99.45,123.82c0-.25.25-.28.44-.31C99.84,123.75,99.65,123.79,99.45,123.82Z"/><path class="cls-3" d="M155,80.44c-.24-.1-.18-.3-.15-.48C155.13,80.05,155.06,80.25,155,80.44Z"/><path class="cls-3" d="M121.75,113.83a.46.46,0,0,1,.47.28A.39.39,0,0,1,121.75,113.83Z"/><path class="cls-4" d="M109.68,167.79a.47.47,0,0,1-.29.46C109.39,168,109.44,167.85,109.68,167.79Z"/><path class="cls-3" d="M147.14,103.84a.44.44,0,0,1-.47.27A.4.4,0,0,1,147.14,103.84Z"/><path class="cls-3" d="M153.63,77.16,153.2,77c.06-.05.13-.15.18-.14S153.66,77,153.63,77.16Z"/><path class="cls-3" d="M146.39,101a.48.48,0,0,1,.28.47C146.43,101.36,146.38,101.17,146.39,101Z"/><path class="cls-4" d="M157.33,100c-.15,0-.23-.13-.18-.26s.13-.12.2-.18Z"/><path class="cls-3" d="M149.1,99.39c-.22.29-.29.3-.49.11Z"/><path class="cls-3" d="M130.24,133.72c.06-.23.25-.28.45-.3C130.64,133.66,130.44,133.7,130.24,133.72Z"/><path class="cls-4" d="M166.94,113.83c0-.2.06-.39.28-.46C167.22,113.58,167.17,113.76,166.94,113.83Z"/><path class="cls-4" d="M101.51,178.77l-.21.45C101.16,179,101.32,178.87,101.51,178.77Z"/><path class="cls-3" d="M120.77,113.37c.16-.23.25-.22.47.09Z"/><path class="cls-3" d="M124,113.25a.48.48,0,0,1-.49-.26A.4.4,0,0,1,124,113.25Z"/><path class="cls-4" d="M171.07,110.33a.5.5,0,0,1-.47-.27A.37.37,0,0,1,171.07,110.33Z"/><path class="cls-4" d="M118.16,150.59a.47.47,0,0,1-.27.47A.4.4,0,0,1,118.16,150.59Z"/><path class="cls-4" d="M117,157.59c0-.21,0-.4.28-.47A.46.46,0,0,1,117,157.59Z"/><path class="cls-4" d="M116.46,158.68a.42.42,0,0,1,.27-.48A.46.46,0,0,1,116.46,158.68Z"/><path class="cls-4" d="M116.13,159.33c0-.21,0-.4.28-.47A.45.45,0,0,1,116.13,159.33Z"/><path class="cls-4" d="M113.59,160.16a.46.46,0,0,1-.27.47A.41.41,0,0,1,113.59,160.16Z"/><path class="cls-4" d="M113.05,161.26a.48.48,0,0,1-.27.46A.38.38,0,0,1,113.05,161.26Z"/><path class="cls-3" d="M162.91,93.6c-.06.23-.25.27-.45.3C162.51,93.65,162.7,93.61,162.91,93.6Z"/><path class="cls-3" d="M166.41,91.77a.45.45,0,0,1-.48.25A.4.4,0,0,1,166.41,91.77Z"/><path class="cls-4" d="M150.74,120.33c.19.09.32.21.21.45Z"/><path class="cls-3" d="M169.78,90.13a.46.46,0,0,1-.48.27A.42.42,0,0,1,169.78,90.13Z"/><path class="cls-4" d="M138.62,134.69c0-.19.14-.31.35-.29C138.93,134.58,138.83,134.71,138.62,134.69Z"/><path class="cls-4" d="M138.18,135a.32.32,0,0,1,.36-.29C138.49,134.91,138.4,135,138.18,135Z"/><path class="cls-3" d="M130.35,120.23a.33.33,0,0,1-.3.35A.31.31,0,0,1,130.35,120.23Z"/><path class="cls-3" d="M144.1,105.36c-.06.18-.16.3-.36.29C143.78,105.45,143.87,105.32,144.1,105.36Z"/><path class="cls-3" d="M127.07,135.54c.07-.16.16-.3.38-.24C127.38,135.47,127.29,135.6,127.07,135.54Z"/><path class="cls-4" d="M125.58,144.19a.32.32,0,0,1,.29-.35C125.89,144.06,125.77,144.15,125.58,144.19Z"/><path class="cls-4" d="M169.29,111.78c.21,0,.31.07.37.25C169.45,112.09,169.36,111.94,169.29,111.78Z"/><path class="cls-4" d="M159.17,137.23a.34.34,0,0,1-.3-.34C159.07,136.92,159.19,137,159.17,137.23Z"/><path class="cls-3" d="M126.42,125a.31.31,0,0,1-.29.36A.32.32,0,0,1,126.42,125Z"/><path class="cls-3" d="M156.5,98.72c-.2.26-.23.25-.46,0Z"/><path class="cls-4" d="M168.1,112.37a.32.32,0,0,1,.36-.28C168.41,112.27,168.32,112.41,168.1,112.37Z"/><path class="cls-4" d="M160.36,138.76a.34.34,0,0,1-.29-.35C160.26,138.45,160.39,138.53,160.36,138.76Z"/><path class="cls-3" d="M158.1,97.16a.33.33,0,0,1-.3.35A.31.31,0,0,1,158.1,97.16Z"/><path class="cls-4" d="M160.91,139.51a.31.31,0,0,1-.29-.35C160.81,139.21,160.93,139.3,160.91,139.51Z"/><path class="cls-3" d="M97.37,125.33a.35.35,0,0,1,.35-.3C97.69,125.24,97.59,125.36,97.37,125.33Z"/><path class="cls-4" d="M159.77,141.23a.32.32,0,0,1,.29.35C159.87,141.54,159.74,141.44,159.77,141.23Z"/><path class="cls-3" d="M103.05,118.72a.34.34,0,0,1-.32.33A.3.3,0,0,1,103.05,118.72Z"/><path class="cls-4" d="M160.5,142a.33.33,0,0,1,.34.31C160.63,142.32,160.53,142.2,160.5,142Z"/><path class="cls-4" d="M127.09,142.64a.29.29,0,0,1,.35-.29C127.39,142.53,127.29,142.65,127.09,142.64Z"/><path class="cls-4" d="M137.42,135.56a.3.3,0,0,1,.36-.28A.33.33,0,0,1,137.42,135.56Z"/><path class="cls-4" d="M167.58,112.84a.31.31,0,0,1,.32-.33A.33.33,0,0,1,167.58,112.84Z"/><path class="cls-4" d="M168.64,112c.07-.17.17-.29.38-.24C168.94,111.94,168.87,112.1,168.64,112Z"/><path class="cls-3" d="M97.85,123.43c-.06.17-.16.3-.37.27C97.53,123.51,97.63,123.38,97.85,123.43Z"/><path class="cls-4" d="M162.37,144.39a.31.31,0,0,1,.31.34A.31.31,0,0,1,162.37,144.39Z"/><path class="cls-3" d="M122.73,131.87c0,.22-.1.33-.32.33A.35.35,0,0,1,122.73,131.87Z"/><path class="cls-3" d="M128.71,122.19c0,.21-.11.31-.3.35A.31.31,0,0,1,128.71,122.19Z"/><path class="cls-4" d="M136.25,131.9a.33.33,0,0,1-.34.31A.31.31,0,0,1,136.25,131.9Z"/><path class="cls-4" d="M102.93,121.42a.33.33,0,0,1,.34-.31C103.24,121.31,103.14,121.43,102.93,121.42Z"/><path class="cls-3" d="M123.83,114.67c.24-.16.28.06.36.19C124,114.92,123.9,114.83,123.83,114.67Z"/><path class="cls-4" d="M134,131.3a.32.32,0,0,1,.36-.27C134.35,131.21,134.26,131.34,134,131.3Z"/><path class="cls-4" d="M154.39,132.77a.33.33,0,0,1-.3-.35C154.28,132.46,154.4,132.55,154.39,132.77Z"/><path class="cls-4" d="M127.84,142.08c0-.19.15-.3.36-.28C128.15,142,128.06,142.11,127.84,142.08Z"/><path class="cls-4" d="M135.05,133a.32.32,0,0,1-.33.31A.3.3,0,0,1,135.05,133Z"/><path class="cls-3" d="M95.41,126.85a.35.35,0,0,1,.35-.3C95.73,126.76,95.63,126.88,95.41,126.85Z"/><path class="cls-4" d="M163.11,145.17l.33.22C163.2,145.51,163.15,145.34,163.11,145.17Z"/><path class="cls-4" d="M110,170.86a.32.32,0,0,1,.26-.37C110.35,170.72,110.2,170.8,110,170.86Z"/><path class="cls-3" d="M96.93,125.65a.35.35,0,0,1,.36-.29C97.25,125.56,97.15,125.69,96.93,125.65Z"/><path class="cls-4" d="M104.45,178a.32.32,0,0,1,.34-.3C104.76,177.89,104.66,178,104.45,178Z"/><path class="cls-4" d="M153.85,132.11a.31.31,0,0,1-.3-.35A.32.32,0,0,1,153.85,132.11Z"/><path class="cls-3" d="M154.76,98.18c-.06.2-.2.2-.36.17C154.45,98.14,154.59,98.15,154.76,98.18Z"/><path class="cls-3" d="M154.34,81.91c.19.07.19.21.14.37C154.28,82.22,154.29,82.07,154.34,81.91Z"/><path class="cls-3" d="M149.93,99.36c-.24-.16-.24-.17,0-.37Z"/><path class="cls-3" d="M85.62,130.39c.16,0,.3,0,.37.15C85.83,130.59,85.68,130.59,85.62,130.39Z"/><path class="cls-3" d="M152.92,77.56c.19.06.2.21.15.37C152.87,77.87,152.88,77.72,152.92,77.56Z"/><path class="cls-3" d="M127.2,110l-.19.24C127,110.1,127.05,110,127.2,110Z"/><path class="cls-3" d="M121.67,132.66l-.24.2C121.45,132.71,121.52,132.64,121.67,132.66Z"/><path class="cls-3" d="M127,110.33l-.2.24Z"/><path class="cls-4" d="M165.31,111.57l-.25.17C165.09,111.6,165.16,111.54,165.31,111.57Z"/><path class="cls-3" d="M126.1,111.63l-.17.25A.19.19,0,0,1,126.1,111.63Z"/><path class="cls-4" d="M165,111.78l-.23.19C164.76,111.83,164.83,111.75,165,111.78Z"/><path class="cls-3" d="M120.77,133.51l-.19.24Z"/><path class="cls-4" d="M155.5,133.73l-.23-.19C155.42,133.52,155.49,133.59,155.5,133.73Z"/><path class="cls-3" d="M120.13,112l-.24.07C119.94,111.92,120,111.81,120.13,112Z"/><path class="cls-3" d="M122.54,112.6l-.26-.15A.18.18,0,0,1,122.54,112.6Z"/><path class="cls-4" d="M139.17,134.26l.22-.2Z"/><path class="cls-4" d="M153.21,134.06l.23.21Z"/><path class="cls-3" d="M123.2,112.91a.19.19,0,0,1-.26-.15Z"/><path class="cls-4" d="M167.25,113.28l.19-.24C167.47,113.19,167.39,113.26,167.25,113.28Z"/><path class="cls-3" d="M124.72,113.58l-.26-.16C124.6,113.38,124.68,113.44,124.72,113.58Z"/><path class="cls-4" d="M153.86,134.61l.23.2Z"/><path class="cls-3" d="M125.31,113.36c0,.15,0,.23-.16.25Z"/><path class="cls-3" d="M125.15,113.62l-.09.15-.16-.14Z"/><path class="cls-4" d="M166.71,114.26l.17-.24C166.93,114.17,166.85,114.24,166.71,114.26Z"/><path class="cls-3" d="M104.37,117.43l-.24.2A.19.19,0,0,1,104.37,117.43Z"/><path class="cls-3" d="M131.87,118.38l-.19.24Z"/><path class="cls-3" d="M110.13,119.05c0-.15.07-.22.22-.21Z"/><path class="cls-3" d="M126.63,135.75l.26-.16C126.86,135.75,126.78,135.81,126.63,135.75Z"/><path class="cls-4" d="M137.1,135.78l.24-.19Z"/><path class="cls-3" d="M120.88,135.82l.25.18A.2.2,0,0,1,120.88,135.82Z"/><path class="cls-3" d="M131.34,119l-.2.24C131.12,119.12,131.19,119.05,131.34,119Z"/><path class="cls-3" d="M130.79,119.69l-.2.24A.2.2,0,0,1,130.79,119.69Z"/><path class="cls-3" d="M129.7,121l-.2.23A.19.19,0,0,1,129.7,121Z"/><path class="cls-4" d="M102.06,122.07l.24-.19Z"/><path class="cls-3" d="M99.15,122.55l-.24.19C98.92,122.59,99,122.52,99.15,122.55Z"/><path class="cls-4" d="M135.68,136.75l.24-.18C135.9,136.71,135.83,136.78,135.68,136.75Z"/><path class="cls-4" d="M135.35,137l.24-.18C135.57,136.93,135.5,137,135.35,137Z"/><path class="cls-4" d="M101,122.82l.24-.18C101.18,122.78,101.11,122.85,101,122.82Z"/><path class="cls-4" d="M135,137.19l.24-.18Z"/><path class="cls-3" d="M127.64,123.5l-.21.23A.2.2,0,0,1,127.64,123.5Z"/><path class="cls-3" d="M97.19,123.85l-.25.19C97,123.89,97,123.83,97.19,123.85Z"/><path class="cls-3" d="M96.86,124.07l-.25.18Z"/><path class="cls-4" d="M159.94,138.21l-.19-.24Z"/><path class="cls-3" d="M127.1,124.16l-.2.23C126.88,124.24,127,124.17,127.1,124.16Z"/><path class="cls-4" d="M132.31,139l.23-.19C132.52,139,132.45,139.06,132.31,139Z"/><path class="cls-4" d="M98.36,124.57l.23-.19Z"/><path class="cls-4" d="M160.59,139.08l-.19-.23C160.54,138.86,160.61,138.93,160.59,139.08Z"/><path class="cls-4" d="M132,139.25l.24-.18C132.2,139.21,132.13,139.28,132,139.25Z"/><path class="cls-3" d="M126.76,124.59l-.2.23Z"/><path class="cls-4" d="M131.65,139.48l.24-.19Z"/><path class="cls-4" d="M131.33,139.7l.24-.19Z"/><path class="cls-4" d="M131,139.92l.24-.19Z"/><path class="cls-4" d="M158.78,139.71l.19.24Z"/><path class="cls-4" d="M161.25,139.94l-.2-.23Z"/><path class="cls-3" d="M97.92,124.9l.24-.19A.19.19,0,0,1,97.92,124.9Z"/><path class="cls-4" d="M159.23,140.36l.18.24C159.27,140.58,159.2,140.5,159.23,140.36Z"/><path class="cls-4" d="M161.91,140.71l-.2-.24Z"/><path class="cls-4" d="M126.78,140.83l-.24.19Z"/><path class="cls-4" d="M159.56,140.9l.18.24C159.6,141.12,159.53,141.05,159.56,140.9Z"/><path class="cls-4" d="M126.46,141.05l-.25.18Z"/><path class="cls-4" d="M128.93,141.33l.24-.19Z"/><path class="cls-3" d="M95.67,124.83l-.25.19A.19.19,0,0,1,95.67,124.83Z"/><path class="cls-4" d="M146,125.58l.16-.24C146.25,125.49,146.18,125.56,146,125.58Z"/><path class="cls-4" d="M162.45,141.58a.19.19,0,0,1-.18-.25Z"/><path class="cls-4" d="M125.59,141.59l-.25.18Z"/><path class="cls-3" d="M96.5,126l.23-.2A.18.18,0,0,1,96.5,126Z"/><path class="cls-3" d="M155.91,98.5c-.14,0-.2-.12-.16-.26Z"/><path class="cls-4" d="M143,125.93l.21.08-.15.12Z"/><path class="cls-4" d="M127.52,142.31l.24-.19Z"/><path class="cls-3" d="M125.67,126l-.19.24Z"/><path class="cls-3" d="M96.07,126.32l.23-.2A.19.19,0,0,1,96.07,126.32Z"/><path class="cls-4" d="M141.23,126.41a.19.19,0,0,1,.26-.16Z"/><path class="cls-4" d="M164.1,142.87l-.23-.19Z"/><path class="cls-4" d="M123.63,142.8l-.26.16Z"/><path class="cls-4" d="M123.19,143a.19.19,0,0,1-.25.16Z"/><path class="cls-3" d="M125.35,126.44l-.19.24C125.13,126.53,125.2,126.45,125.35,126.44Z"/><path class="cls-4" d="M122.66,143.27l-.25.14C122.44,143.27,122.5,143.2,122.66,143.27Z"/><path class="cls-3" d="M171,89.49l-.25.16C170.75,89.5,170.82,89.44,171,89.49Z"/><path class="cls-4" d="M122.22,143.47l-.25.16C122,143.49,122.07,143.41,122.22,143.47Z"/><path class="cls-3" d="M172,89.79l-.19-.25C172,89.56,172.05,89.64,172,89.79Z"/><path class="cls-3" d="M170.21,89.9a.19.19,0,0,1-.26.17Z"/><path class="cls-4" d="M162,143.84l.19.23C162,144.06,161.92,144,162,143.84Z"/><path class="cls-4" d="M125.36,144.52l.18-.25C125.57,144.42,125.5,144.49,125.36,144.52Z"/><path class="cls-3" d="M167.82,91.1l-.26.17A.19.19,0,0,1,167.82,91.1Z"/><path class="cls-3" d="M167.38,91.31c0,.14-.11.21-.26.17Z"/><path class="cls-3" d="M95,127.19l.23-.2Z"/><path class="cls-3" d="M94.33,127.74l.23-.21C94.55,127.68,94.48,127.75,94.33,127.74Z"/><path class="cls-4" d="M139.27,127.72l.24-.19C139.49,127.67,139.42,127.75,139.27,127.72Z"/><path class="cls-4" d="M163.63,145.41h.28C163.81,145.59,163.72,145.6,163.63,145.41Z"/><path class="cls-3" d="M165.53,92.18c0,.14-.11.21-.26.17Z"/><path class="cls-3" d="M163.89,93.05l-.25.18Z"/><path class="cls-4" d="M144.52,128.3l.17-.24A.18.18,0,0,1,144.52,128.3Z"/><path class="cls-4" d="M119.46,147.86l-.15.26C119.26,148,119.33,147.9,119.46,147.86Z"/><path class="cls-4" d="M121.24,148.34c0-.15,0-.23.19-.25Z"/><path class="cls-4" d="M138.18,128.47l.23-.18C138.4,128.44,138.33,128.51,138.18,128.47Z"/><path class="cls-4" d="M121,148.78c0-.14,0-.23.16-.26Z"/><path class="cls-3" d="M162.16,94.05l-.25.17C161.93,94.07,162,94,162.16,94.05Z"/><path class="cls-4" d="M118.38,150.15l-.16.25C118.17,150.25,118.24,150.18,118.38,150.15Z"/><path class="cls-4" d="M144.3,128.63l.18-.24Z"/><path class="cls-4" d="M117.84,151.25l-.15.24C117.62,151.34,117.7,151.27,117.84,151.25Z"/><path class="cls-4" d="M117.39,152.21a.19.19,0,0,1-.17.26Z"/><path class="cls-4" d="M117.18,152.65l-.17.25C117,152.76,117.05,152.69,117.18,152.65Z"/><path class="cls-4" d="M117,153.09l-.16.25C116.75,153.19,116.83,153.12,117,153.09Z"/><path class="cls-4" d="M116.51,154.06c0,.14,0,.23-.16.25Z"/><path class="cls-4" d="M137.2,129.14l.24-.19Z"/><path class="cls-4" d="M139.84,129l-.23.19C139.62,129,139.69,129,139.84,129Z"/><path class="cls-3" d="M160.74,94.91l-.25.18A.19.19,0,0,1,160.74,94.91Z"/><path class="cls-4" d="M115.88,155.38l-.15.25C115.67,155.48,115.74,155.41,115.88,155.38Z"/><path class="cls-4" d="M115.64,155.9c0,.15,0,.24-.16.26Z"/><path class="cls-4" d="M136.44,129.67l.23-.18C136.66,129.63,136.59,129.7,136.44,129.67Z"/><path class="cls-3" d="M160.08,95.34l-.23.19A.18.18,0,0,1,160.08,95.34Z"/><path class="cls-4" d="M115,157.23l-.16.25C114.8,157.33,114.87,157.26,115,157.23Z"/><path class="cls-4" d="M116.79,158a.18.18,0,0,1,.16-.26Z"/><path class="cls-3" d="M159.65,95.66l-.23.21C159.42,95.72,159.5,95.65,159.65,95.66Z"/><path class="cls-4" d="M128.61,141.55l.24-.19Z"/><path class="cls-4" d="M135.79,130.12l.24-.19Z"/><path class="cls-4" d="M152.77,130.23,153,130C153,130.18,152.91,130.25,152.77,130.23Z"/><path class="cls-3" d="M148.63,97.84l.26.17C148.73,98.05,148.66,98,148.63,97.84Z"/><path class="cls-3" d="M156.82,98.5l-.23.19C156.6,98.54,156.67,98.47,156.82,98.5Z"/><path class="cls-4" d="M113.27,160.82l-.16.25C113.05,160.92,113.13,160.85,113.27,160.82Z"/><path class="cls-3" d="M151.45,98.79l-.1.23C151.2,98.86,151.33,98.83,151.45,98.79Z"/><path class="cls-4" d="M112.73,161.91l-.16.25C112.51,162,112.59,161.94,112.73,161.91Z"/><path class="cls-4" d="M112.4,162.57l-.16.24C112.18,162.66,112.26,162.59,112.4,162.57Z"/><path class="cls-4" d="M114.37,162.79l.16-.24C114.59,162.7,114.51,162.77,114.37,162.79Z"/><path class="cls-3" d="M149.18,99.13c.16.12.08.18-.06.24Z"/><path class="cls-4" d="M112.18,163l-.15.25C112,163.09,112,163,112.18,163Z"/><path class="cls-4" d="M111.86,163.65l-.16.25C111.64,163.74,111.72,163.68,111.86,163.65Z"/><path class="cls-3" d="M150.82,100l-.24-.19C150.73,99.78,150.81,99.85,150.82,100Z"/><path class="cls-4" d="M135.14,130.55l.24-.18Z"/><path class="cls-4" d="M111.31,164.74l-.16.24C111.1,164.83,111.17,164.76,111.31,164.74Z"/><path class="cls-4" d="M138,130.38l-.23.2Z"/><path class="cls-4" d="M113,165.52l.16-.25C113.17,165.42,113.09,165.49,113,165.52Z"/><path class="cls-3" d="M146,100l.09.23C146,100.19,145.87,100.16,146,100Z"/><path class="cls-3" d="M146.92,101.94l.18.25Z"/><path class="cls-4" d="M137.33,130.92l-.22.2C137.12,131,137.19,130.91,137.33,130.92Z"/><path class="cls-3" d="M142.67,106.43l-.23.21C142.45,106.49,142.52,106.42,142.67,106.43Z"/><path class="cls-4" d="M153.19,131.24,153,131Z"/><path class="cls-4" d="M109.24,168.54l-.18.25Z"/><path class="cls-4" d="M108.91,169.08a.19.19,0,0,1-.19.25Z"/><path class="cls-4" d="M108.69,169.41l-.18.25Z"/><path class="cls-4" d="M108.26,170.07l-.18.24Z"/><path class="cls-4" d="M153.51,131.68l-.19-.24C153.47,131.46,153.54,131.53,153.51,131.68Z"/><path class="cls-4" d="M107.83,170.72l-.18.24Z"/><path class="cls-4" d="M107.61,171.05l-.18.24C107.4,171.14,107.47,171.07,107.61,171.05Z"/><path class="cls-4" d="M107.4,171.38l-.18.24C107.19,171.47,107.26,171.4,107.4,171.38Z"/><path class="cls-4" d="M109.48,171.73l.18-.25Z"/><path class="cls-4" d="M106.74,172.36l-.18.24C106.53,172.45,106.61,172.38,106.74,172.36Z"/><path class="cls-3" d="M136.48,108.78l-.27-.15C136.35,108.59,136.43,108.64,136.48,108.78Z"/><path class="cls-4" d="M106.53,172.69l-.18.24C106.31,172.78,106.38,172.7,106.53,172.69Z"/><path class="cls-4" d="M108.49,173.24l.19-.24C108.7,173.15,108.63,173.22,108.49,173.24Z"/><path class="cls-4" d="M105.87,173.66l-.19.24Z"/><path class="cls-4" d="M108,174l.19-.24Z"/><path class="cls-4" d="M107.73,174.33l.19-.24Z"/><path class="cls-4" d="M107.41,174.77l.19-.24Z"/><path class="cls-4" d="M105.12,174.76l-.18.24C104.9,174.84,105,174.77,105.12,174.76Z"/><path class="cls-4" d="M107.08,175.21l.2-.24Z"/><path class="cls-4" d="M106.75,175.64l.2-.24Z"/><path class="cls-4" d="M106.42,176.06l.2-.22C106.63,176,106.56,176.05,106.42,176.06Z"/><path class="cls-4" d="M103.92,176.5l-.19.23C103.7,176.58,103.78,176.51,103.92,176.5Z"/><path class="cls-3" d="M128.42,108.73l-.24.19C128.19,108.77,128.27,108.7,128.42,108.73Z"/><path class="cls-4" d="M132.85,132.07l.24-.18Z"/><path class="cls-4" d="M103.73,178.93c0-.15,0-.24.16-.27Z"/><path class="cls-3" d="M127.64,109.46l-.21.24A.2.2,0,0,1,127.64,109.46Z"/><path class="cls-3" d="M122.32,132.23l-.24.18Z"/><path class="cls-4" d="M101.26,180.5l.14.26C101.26,180.72,101.19,180.65,101.26,180.5Z"/><path class="cls-4" d="M155.94,109.89c-.16,0-.23-.06-.2-.23Z"/><path class="cls-4" d="M114.23,158.85a.19.19,0,0,1-.16.25Z"/><path class="cls-5" d="M138.17,110.55a4.61,4.61,0,0,1-.39.55l-2.48,2.73a.81.81,0,0,1-.71.3c-1,0-2,0-3,0-1.41.07-2.81.21-4.21.31-.19,0-.39,0-.66,0,.36-.67.67-1.28,1-1.87s.63-1,.92-1.48a1.17,1.17,0,0,1,.86-.59,19,19,0,0,1,2-.25c1.12,0,2.24-.06,3.36,0S137,110.44,138.17,110.55Z"/></svg>