<svg xmlns="http://www.w3.org/2000/svg" xmlns:xlink="http://www.w3.org/1999/xlink" viewBox="40 60 185 185" width="480px" height="480px" fill-rule="nonzero"><g fill="none" fill-rule="nonzero" stroke="none" stroke-width="1" stroke-linecap="butt" stroke-linejoin="miter" stroke-miterlimit="10" stroke-dasharray="" stroke-dashoffset="0" font-family="none" font-weight="none" font-size="none" text-anchor="none" style="mix-blend-mode: normal"><g transform="scale(5.33333,5.33333)"><path d="M39,43h-30c-2.209,0 -4,-1.791 -4,-4v-30c0,-2.209 1.791,-4 4,-4h30c2.209,0 4,1.791 4,4v30c0,2.209 -1.791,4 -4,4z" fill="#000000"></path><path d="M40.565,23.73c-1.611,1.338 -3.412,2.511 -5.16,3.66c-0.965,0.634 -1.629,0.943 -2.806,1.039c-1.513,0.124 -0.899,-0.939 -0.353,-1.641c0.301,-0.388 1.804,-1.785 1.094,-2.296c-0.546,-0.394 -1.699,0.652 -2.238,0.839c-2.348,0.814 -3.428,-1.725 -3.853,-3.455c-0.331,-1.347 -1.223,-0.905 -2.007,-0.293c-1.225,1.204 -2.916,2.066 -4.765,2.75c-0.836,0.339 -0.954,1.87 0.29,2.046c0.655,0.092 1.481,0.039 2.146,0.057c-0.218,0.254 -1.113,0.983 -0.714,1.453c0.24,0.283 0.965,0.699 1.265,0.916c0.339,0.246 0.687,0.564 1.084,0.707c0.771,0.278 1.329,-0.562 0.68,-1.108c0.762,-0.219 1.524,-0.438 2.286,-0.657c0.623,-0.179 1.094,0.103 1.707,0.309c-1.195,0.149 -2.669,0.104 -3.246,1.397c-0.498,0.882 -0.716,2.467 -2.117,2.193c-0.666,-0.13 -1.972,-0.747 -2.401,-1.27c-0.41,-0.501 -0.05,-1.697 -0.079,-2.305c-0.031,-0.633 -0.325,-1.166 -0.895,-1.462c-0.065,1.025 -0.13,2.051 -0.195,3.076c-0.104,1.636 0.768,1.954 2.115,2.743c2.026,1.186 3.966,2.467 5.731,4.021c0.478,0.421 1.607,1.943 2.297,1.253c0.392,-0.392 -0.041,-0.964 -0.352,-1.245l-1.079,-1.129c-0.091,-0.08 -0.367,-0.382 -0.219,-0.516c0.2,-0.18 0.651,0.54 0.813,0.609c0.045,0.019 -0.11,-0.908 -0.11,-0.896c0.031,-0.534 0.494,-0.952 1.027,-0.93c1.538,0.063 1.24,1.6 1.24,2.529c0,-1.109 -2.402,-1.145 -1.315,0.105c1.291,1.484 2.397,-0.253 2.876,-1.613c0.406,-1.155 0.148,-1.495 1.012,-2.288c0.887,-0.814 1.774,-1.628 2.661,-2.441c1.187,-1.089 2.387,-2.168 3.499,-3.335c0.915,-0.96 1.691,-2.009 1.943,-3.349c0.286,-1.529 -1.467,0.198 -1.862,0.527z" fill="#fafafa"></path><path d="M24.328,28.612c-0.078,0 -0.155,-0.03 -0.214,-0.09c-0.251,-0.256 -0.516,-0.458 -0.785,-0.601c-0.146,-0.078 -0.203,-0.26 -0.125,-0.406c0.077,-0.146 0.257,-0.203 0.405,-0.125c0.325,0.172 0.639,0.411 0.934,0.712c0.116,0.118 0.114,0.309 -0.004,0.424c-0.059,0.058 -0.135,0.086 -0.211,0.086z" fill="#d32f2f"></path><path d="M22.797,13.26c-0.672,-0.635 -1.431,-1.406 -1.925,-1.406c-0.331,0 -0.542,0.346 -0.528,1.311c0.023,1.591 -0.459,3.148 -0.919,4.655c-0.594,1.949 -1.866,3.853 -3.331,5.242c-0.63,-0.204 -1.165,-0.568 -1.531,-1.219c1.942,-2.346 3.607,-5.818 3.463,-8.914c-0.095,-2.033 -0.803,-2.697 -2.034,-2.698c-0.568,0 -1.248,0.142 -2.03,0.356c-0.913,0.25 -1.826,0.5 -2.74,0.75c-1.398,0.383 -0.186,1.199 0.183,1.881c1.239,2.287 0.601,4.923 0.125,7.313c-1.07,-0.465 -2.183,-0.791 -3.151,-0.791c-1.498,0 -2.648,0.781 -2.755,3.041c-0.062,1.3 0.329,1.651 0.953,1.651c0.467,0 1.066,-0.197 1.703,-0.338c0.351,-0.078 0.706,-0.113 1.062,-0.113c1.1,0 2.202,0.338 3.178,0.798c2.732,1.289 4.254,3.336 5.829,5.828c0.341,0.54 0.591,0.753 0.771,0.753c0.53,0 0.45,-1.845 0.307,-2.595c-0.276,-1.44 -1.117,-2.735 -1.74,-4.047c2.522,-0.745 5.835,-1.834 7.607,-3.904c1.879,-2.192 -0.801,-5.951 -2.497,-7.554z" fill="#fafafa"></path></g></g></svg>